HIERARCHY
ROOT Hips
{
	OFFSET 0.000000 0.000000 0.000000
	CHANNELS 6 Xposition Yposition Zposition Xrotation Yrotation Zrotation
	JOINT LeftUpLeg_virtual
	{
		OFFSET 0.000000 0.000000 0.000000
		CHANNELS 3 Xrotation Yrotation Zrotation
		JOINT LeftUpLeg
		{
			OFFSET 10.205400 -3.823500 0.155100
			CHANNELS 3 Xrotation Yrotation Zrotation
			JOINT LeftLeg
			{
				OFFSET 0.708757 -12.982077 0.567790
				CHANNELS 3 Xrotation Yrotation Zrotation
				JOINT LeftFoot
				{
					OFFSET -0.708756 -10.717838 -2.184338
					CHANNELS 3 Xrotation Yrotation Zrotation
					JOINT LeftToeBase
					{
						OFFSET 0.108149 -7.191104 7.560241
						CHANNELS 3 Xrotation Yrotation Zrotation
						JOINT LeftToe_End
						{
							OFFSET 0.070230 0.081724 4.490308
							CHANNELS 3 Xrotation Yrotation Zrotation
							End Site
							{
								OFFSET 0 0 0
							}
						}
					}
				}
			}
		}
	}
	JOINT RightUpLeg_virtual
	{
		OFFSET 0.000000 0.000000 0.000000
		CHANNELS 3 Xrotation Yrotation Zrotation
		JOINT RightUpLeg
		{
			OFFSET -10.205400 -3.823500 0.005500
			CHANNELS 3 Xrotation Yrotation Zrotation
			JOINT RightLeg
			{
				OFFSET -0.708756 -12.982134 0.610632
				CHANNELS 3 Xrotation Yrotation Zrotation
				JOINT RightFoot
				{
					OFFSET 0.708754 -10.717769 -1.945823
					CHANNELS 3 Xrotation Yrotation Zrotation
					JOINT RightToeBase
					{
						OFFSET -0.108140 -7.191069 7.372968
						CHANNELS 3 Xrotation Yrotation Zrotation
						JOINT RightToe_End
						{
							OFFSET -0.070227 0.081735 4.479403
							CHANNELS 3 Xrotation Yrotation Zrotation
							End Site
							{
								OFFSET 0 0 0
							}
						}
					}
				}
			}
		}
	}
	JOINT Spine_virtual
	{
		OFFSET 0.000000 0.000000 0.000000
		CHANNELS 3 Xrotation Yrotation Zrotation
		JOINT Spine
		{
			OFFSET 0.000000 6.876099 0.125700
			CHANNELS 3 Xrotation Yrotation Zrotation
			JOINT Spine1
			{
				OFFSET 0.000000 5.730043 0.104720
				CHANNELS 3 Xrotation Yrotation Zrotation
				JOINT Spine1_split
				{
					OFFSET 0.000000 5.730043 0.104720
					CHANNELS 3 Xrotation Yrotation Zrotation
					JOINT Spine2
					{
						OFFSET 0.000000 5.730043 0.104720
						CHANNELS 3 Xrotation Yrotation Zrotation
						JOINT Neck_virtual
						{
							OFFSET 0.000000 0.000000 0.000000
							CHANNELS 3 Xrotation Yrotation Zrotation
							JOINT Neck
							{
								OFFSET 0.000000 10.314075 0.188496
								CHANNELS 3 Xrotation Yrotation Zrotation
								JOINT Head
								{
									OFFSET 0.000000 7.643700 -2.377400
									CHANNELS 3 Xrotation Yrotation Zrotation
									JOINT HeadTop_End
									{
										OFFSET 0.000000 43.788605 -13.619600
										CHANNELS 3 Xrotation Yrotation Zrotation
										End Site
										{
											OFFSET 0 0 0
										}
									}
								}
							}
						}
						JOINT LeftShoulder_virtual
						{
							OFFSET 0.000000 0.000000 0.000000
							CHANNELS 3 Xrotation Yrotation Zrotation
							JOINT LeftShoulder
							{
								OFFSET 2.196100 4.412489 0.087492
								CHANNELS 3 Xrotation Yrotation Zrotation
								JOINT LeftShoulder_split
								{
									OFFSET 2.196100 4.412489 0.087492
									CHANNELS 3 Xrotation Yrotation Zrotation
									JOINT LeftArm
									{
										OFFSET 8.771219 -2.981674 -0.026999
										CHANNELS 3 Xrotation Yrotation Zrotation
										JOINT LeftForeArm
										{
											OFFSET 8.512804 0.000000 -0.000000
											CHANNELS 3 Xrotation Yrotation Zrotation
											JOINT LeftHand
											{
												OFFSET 18.484802 0.000000 -0.000000
												CHANNELS 3 Xrotation Yrotation Zrotation
												End Site
												{
													OFFSET 0 0 0
												}
											}
										}
									}
								}
							}
						}
						JOINT RightShoulder_virtual
						{
							OFFSET 0.000000 0.000000 0.000000
							CHANNELS 3 Xrotation Yrotation Zrotation
							JOINT RightShoulder
							{
								OFFSET -2.196100 4.412496 0.070690
								CHANNELS 3 Xrotation Yrotation Zrotation
								JOINT RightShoulder_split
								{
									OFFSET -2.196100 4.412496 0.070690
									CHANNELS 3 Xrotation Yrotation Zrotation
									JOINT RightArm
									{
										OFFSET -8.771282 -2.981682 -0.094208
										CHANNELS 3 Xrotation Yrotation Zrotation
										JOINT RightForeArm
										{
											OFFSET -8.494598 0.000000 0.000000
											CHANNELS 3 Xrotation Yrotation Zrotation
											JOINT RightHand
											{
												OFFSET -18.483803 0.000000 0.000001
												CHANNELS 3 Xrotation Yrotation Zrotation
												End Site
												{
													OFFSET 0 0 0
												}
											}
										}
									}
								}
							}
						}
					}
				}
			}
		}
	}
}
MOTION
Frames: 7
Frame Time: 0.03333333
-0.827702 33.093227 -4.663456 0.000000 0.000000 0.000000 5.774467 -11.525898 3.474058 -19.354538 24.473060 11.782505 29.636105 11.135611 -2.166586 -11.748616 5.187229 -6.172123 3.018225 -3.056230 0.816569 0.000000 0.000000 0.000000 6.750474 -14.410625 4.311598 -14.048313 -11.622273 -4.685243 23.457865 13.371011 -0.666066 -22.674442 -15.979163 9.418693 5.770025 4.590320 -20.020268 0.000000 0.000000 0.000000 7.481078 -8.807449 2.906957 0.716694 -1.509860 0.406756 5.191048 -3.770748 2.980972 -0.040229 -0.384816 0.042065 0.000000 0.000000 0.000000 9.249003 -0.884652 2.885116 -10.932224 0.978335 -5.464745 -26.464133 -0.781769 24.727715 0.000000 0.000000 0.000000 6.613372 -2.156378 2.172164 0.298258 -17.007137 5.716860 0.592474 0.594048 0.336260 -54.754679 15.781531 -39.358658 56.057774 -72.301200 55.128649 0.000000 0.000000 0.000000 8.823710 -1.678597 3.206141 2.167777 -0.294390 3.148649 -9.745705 -8.272708 0.034233 -15.434844 8.431173 61.217100 10.060706 8.825129 2.449996 0.000000 0.000000 0.000000 
-0.628626 33.005051 -4.190128 0.000000 0.000000 0.000000 5.959658 -10.889752 3.328148 -20.319297 25.326615 12.362924 29.366941 10.729171 -2.052468 -11.653111 4.085694 -6.809088 1.749057 -2.965798 1.363408 0.000000 0.000000 0.000000 7.264431 -13.369908 4.207651 -12.632535 -10.753534 -4.706777 22.449426 12.978573 -0.776142 -22.615364 -16.120073 10.766458 2.710208 5.054946 -19.943012 0.000000 0.000000 0.000000 7.641357 -7.049989 2.630782 0.551599 -1.187099 0.706112 5.748790 -3.418616 3.057514 -0.101906 -0.220830 0.031326 0.000000 0.000000 0.000000 9.342396 -0.567691 2.817370 -10.079702 0.792577 -5.408312 -27.156627 -1.814543 25.131872 0.000000 0.000000 0.000000 6.872484 -1.892311 2.015460 -0.166168 -15.898990 5.386840 -1.352128 2.267102 -0.544925 -54.049800 17.774761 -37.943070 57.602708 -72.810739 55.999632 0.000000 0.000000 0.000000 8.988936 -1.370052 3.158051 2.153656 0.091696 3.453013 -10.146286 -7.593797 -0.290410 -14.157834 8.495932 60.330480 10.109411 8.956220 2.662114 0.000000 0.000000 0.000000 
-0.409309 32.924076 -3.816441 0.000000 0.000000 0.000000 6.177986 -7.811142 2.829718 -22.954948 24.777461 13.263347 29.939052 9.776621 -2.067777 -10.403048 1.907417 -7.201175 0.904698 -2.792671 2.022691 0.000000 0.000000 0.000000 7.706606 -9.104967 3.435442 -8.817068 -10.720442 -4.699308 20.496643 11.662271 -0.461912 -25.102335 -16.512491 10.449934 2.396863 5.448775 -18.586552 0.000000 0.000000 0.000000 7.685336 -3.550339 2.082152 0.205646 -0.655101 1.154553 6.285917 -2.550131 3.012640 -0.160156 -0.122091 0.033286 0.000000 0.000000 0.000000 9.450802 0.219501 2.731285 -9.621964 0.265261 -5.198874 -27.299221 -6.032480 24.245088 0.000000 0.000000 0.000000 6.920673 -1.182799 1.792657 -0.774906 -13.623901 4.935023 -2.439233 2.855524 -0.670866 -56.177794 21.275257 -35.684576 64.068103 -76.038447 61.868352 0.000000 0.000000 0.000000 8.902244 -0.623411 3.071012 2.238877 1.345427 4.066009 -10.501721 -6.764957 -0.506781 -12.564500 7.084296 59.492607 10.523021 9.168321 2.484432 0.000000 0.000000 0.000000 
-0.076973 32.873344 -3.654509 0.000000 0.000000 0.000000 6.499048 -2.386089 2.036663 -26.155224 23.110527 13.854233 30.654483 8.725893 -2.132466 -8.876133 -0.952897 -6.911958 1.020218 -2.547968 2.580369 0.000000 0.000000 0.000000 7.989676 -2.643667 2.260719 -3.806916 -11.765063 -4.880462 18.243654 9.763524 0.288914 -28.338366 -17.023188 9.811171 3.448834 6.067450 -16.399055 0.000000 0.000000 0.000000 7.697983 1.306661 1.376890 -0.407454 0.045417 1.692613 6.689948 -1.218729 2.741349 -0.167858 -0.194313 -0.004639 0.000000 0.000000 0.000000 9.506757 1.466357 2.519114 -9.648653 -0.647787 -4.634207 -27.045196 -13.508940 22.242178 0.000000 0.000000 0.000000 6.843370 -0.022705 1.432412 -1.389004 -10.573841 4.421160 -2.096630 2.310994 0.233404 -60.832014 24.517826 -32.849071 76.942703 -80.411038 74.236588 0.000000 0.000000 0.000000 8.649123 0.537508 2.825409 2.365035 3.241720 4.937455 -10.938883 -6.243708 -0.284186 -11.030621 4.746757 58.717183 11.248057 9.034757 1.924542 0.000000 0.000000 0.000000 
0.346249 32.918259 -3.493507 0.000000 0.000000 0.000000 6.936072 4.698526 1.051394 -28.920882 20.600754 13.458135 30.547072 7.925349 -2.148572 -7.770701 -4.303355 -6.090482 1.658531 -2.271168 2.966080 0.000000 0.000000 0.000000 8.132368 4.818152 1.000317 1.439250 -13.923877 -5.208018 16.168745 8.038165 1.440855 -30.626039 -17.503150 10.515308 3.077234 7.237011 -13.758979 0.000000 0.000000 0.000000 7.705633 7.017873 0.563081 -1.245718 0.885256 2.272627 6.900431 0.519093 2.173657 -0.080677 -0.296206 0.026499 0.000000 0.000000 0.000000 9.507773 3.100202 2.080566 -10.233227 -2.055945 -3.371675 -26.850730 -23.649346 19.207409 0.000000 0.000000 0.000000 6.703873 1.551822 0.860133 -1.932621 -6.990881 3.632142 -1.018413 1.437446 1.801269 -66.991076 26.349702 -29.981334 99.435362 -84.349995 96.316295 0.000000 0.000000 0.000000 8.321062 2.083992 2.341672 2.448254 5.466616 5.974723 -11.433463 -5.707370 0.727111 -9.695030 2.190548 57.959647 12.172545 8.499034 0.994709 0.000000 0.000000 0.000000 
0.843801 33.092751 -3.305872 0.000000 0.000000 0.000000 7.553539 12.470874 0.046705 -31.017303 17.354606 12.244714 29.464289 6.920039 -2.040744 -6.495450 -8.143658 -5.902150 1.908850 -2.018953 3.352814 0.000000 0.000000 0.000000 8.185734 12.289459 -0.117874 6.275027 -16.711656 -5.426440 14.264238 6.915006 2.698185 -31.592692 -17.779129 12.483761 0.463691 8.758416 -10.854286 0.000000 0.000000 0.000000 7.710776 12.767561 -0.303685 -2.175533 1.784426 2.870171 6.936931 2.609856 1.368999 0.085777 -0.285566 0.092552 0.000000 0.000000 0.000000 9.472571 5.047205 1.395407 -11.121489 -4.047602 -1.132118 -26.809230 -35.618924 15.341438 0.000000 0.000000 0.000000 6.545804 3.481727 0.109595 -2.348628 -3.170281 2.568696 0.604849 0.442209 3.340888 -72.998542 26.040178 -27.895954 145.056744 -86.770682 141.698544 0.000000 0.000000 0.000000 7.956793 3.945130 1.614886 2.420669 7.641501 7.150498 -12.008170 -4.920195 1.825983 -8.588972 0.140828 57.177798 13.168982 7.715236 -0.216322 0.000000 0.000000 0.000000 
1.404274 33.336025 -3.084181 0.000000 0.000000 0.000000 8.123680 20.034007 -0.990007 -32.586296 13.599836 10.490970 27.781904 5.600741 -1.940526 -4.513041 -12.343553 -6.660535 1.309614 -1.818591 3.728834 0.000000 0.000000 0.000000 8.048266 19.162239 -1.018337 10.485529 -19.579335 -5.315071 13.043343 6.045571 3.930595 -31.765735 -17.885375 14.072824 -2.420708 9.989715 -7.698769 0.000000 0.000000 0.000000 7.657417 18.623851 -1.237054 -3.101181 2.577315 3.428741 6.807543 4.936980 0.475851 0.275054 -0.220921 0.134025 0.000000 0.000000 0.000000 9.312547 7.188427 0.530598 -12.030622 -6.515662 2.119925 -27.030926 -48.380750 10.785335 0.000000 0.000000 0.000000 6.422973 5.654096 -0.680007 -2.617032 0.823421 1.446092 2.575484 -1.011538 4.386508 -77.678273 23.925359 -27.126697 -154.624145 -86.818507 -157.984297 0.000000 0.000000 0.000000 7.677942 6.001588 0.705629 2.343031 9.454184 8.313423 -12.910889 -3.780447 2.730334 -7.443325 -0.987537 56.372724 14.105176 7.118649 -1.607095 0.000000 0.000000 0.000000 
